<svg width="148" height="148" viewBox="0 0 148 148" fill="none" xmlns="http://www.w3.org/2000/svg">
<g clip-path="url(#clip0_3_2)">
<path d="M136.125 97.145C127.063 97.145 118.166 95.7279 109.735 92.9417C105.604 91.5326 100.526 92.8253 98.0041 95.4149L81.363 107.977C62.064 97.6754 50.1762 85.7914 40.0151 66.6374L52.2078 50.4298C55.3755 47.2663 56.5117 42.6452 55.1504 38.3093C52.3523 29.8339 50.9309 20.9412 50.9309 11.8762C50.9313 5.32761 45.6037 0 39.0554 0H11.8758C5.32761 0 0 5.32761 0 11.8758C0 86.9357 61.0646 148 136.125 148C142.673 148 148 142.672 148 136.124V109.021C148 102.473 142.672 97.145 136.125 97.145Z" fill="#1A1A1A"/>
</g>
<defs>
<clipPath id="clip0_3_2">
<rect width="148" height="148" fill="white"/>
</clipPath>
</defs>
</svg>
