<svg width="148" height="148" viewBox="0 0 148 148" fill="none" xmlns="http://www.w3.org/2000/svg">
<g clip-path="url(#clip0_4_36)">
<path fill-rule="evenodd" clip-rule="evenodd" d="M91.6673 82.6516C88.8663 83.7963 87.077 88.1814 85.2617 90.4216C84.3309 91.5692 83.2209 91.7484 81.7901 91.1732C71.2769 86.9847 63.2178 79.9691 57.4163 70.2942C56.4335 68.794 56.6098 67.6088 57.795 66.2155C59.5467 64.1516 61.7494 61.8073 62.2234 59.0266C63.2756 52.8753 55.2339 33.7943 44.6137 42.4402C14.0541 67.3429 95.5928 133.391 110.309 97.6684C114.471 87.5426 96.3097 80.7496 91.6673 82.6516ZM73.9998 135.073C63.1918 135.073 52.5572 132.2 43.2465 126.76C41.752 125.884 39.9454 125.653 38.2746 126.106L18.0431 131.659L25.0905 116.134C25.5618 115.097 25.7507 113.955 25.638 112.821C25.5253 111.688 25.115 110.605 24.4487 109.682C16.91 99.2323 12.9238 86.8951 12.9238 74C12.9238 40.3213 40.3212 12.924 73.9998 12.924C107.679 12.924 135.073 40.3213 135.073 74C135.073 107.676 107.676 135.073 73.9998 135.073ZM73.9998 0C33.1958 0 -0.000165759 33.1959 -0.000165759 74C-0.000165759 88.3548 4.07561 102.14 11.8196 114.105L0.577959 138.863C0.0699783 139.981 -0.108994 141.221 0.0619848 142.437C0.232964 143.653 0.746823 144.796 1.54343 145.731C2.15098 146.442 2.90535 147.013 3.75464 147.405C4.60393 147.796 5.528 147.999 6.46327 148C10.6316 148 33.3605 140.857 39.1447 139.27C49.8371 144.991 61.8303 148 73.9998 148C114.801 148 148 114.801 148 74C148 33.1959 114.801 0 73.9998 0Z" fill="#39AE41"/>
</g>
<defs>
<clipPath id="clip0_4_36">
<rect width="148" height="148" fill="white"/>
</clipPath>
</defs>
</svg>
