<svg xmlns="http://www.w3.org/2000/svg" width="300" height="72.71" viewBox="0 0 300 72.71">
  <g id="Group_28" data-name="Group 28" transform="translate(-241 -77)">
    <g id="Group_27" data-name="Group 27" transform="translate(241 77)">
      <g id="Group_26" data-name="Group 26">
        <g id="Group_11" data-name="Group 11" transform="translate(73.185 6.254)">
          <path id="Path_2" data-name="Path 2" d="M565.254,297.558a15.106,15.106,0,0,1,6.4,1.422,6.3,6.3,0,0,1,2.755,2.37,6.715,6.715,0,0,1,1.037,3.733,2.868,2.868,0,0,1-1.9,2.9,4.491,4.491,0,0,1-1.63.3,3.142,3.142,0,0,1-1.748-.593,15.928,15.928,0,0,0,.237-2.933,5.59,5.59,0,0,0-1.067-3.229,4.963,4.963,0,0,0-4.385-2.311q-8.237,0-8.236,13.569,0,6.637,1.926,9.984a6.658,6.658,0,0,0,6.251,3.348q5.511,0,8.829-5.333,1.3.415,1.3,1.274a3.646,3.646,0,0,1-1.1,2.133,10.445,10.445,0,0,1-3.792,2.429,15.6,15.6,0,0,1-6.192,1.156,12.689,12.689,0,0,1-9.866-4.148q-3.764-4.147-3.763-10.962t4.059-10.962Q558.439,297.559,565.254,297.558Z" transform="translate(-550.322 -281.737)" fill="#003da5"/>
          <path id="Path_3" data-name="Path 3" d="M730.848,298.822q9.479,0,9.48,9.125,0,6.577-.415,18.487l4.207.3v1.422H730.907V326.73l3.2-.237q.414-15.643.415-18.991a8.313,8.313,0,0,0-1.244-5.007,4.711,4.711,0,0,0-4.029-1.659,7.23,7.23,0,0,0-5.155,2.341,12.134,12.134,0,0,0-3.2,5.007q0,6.4-.415,18.25l4.207.3v1.422H711.472V326.73l3.2-.237q.414-15.643.415-18.991a8.315,8.315,0,0,0-1.244-5.007q-1.245-1.658-4.3-1.659t-5.718,3.229q-2.667,3.23-2.667,5.718v16.65l4.444.3v1.422H691.5V326.73l3.851-.237V301.37l-5.037-.237V299.77l10.607-.711-.3,6.1h.592a11.129,11.129,0,0,1,10.192-6.34q8,0,9.244,6.4v-.059a11.128,11.128,0,0,1,10.192-6.34Z" transform="translate(-664.069 -282.764)" fill="#003da5"/>
          <path id="Path_4" data-name="Path 4" d="M992.391,327.837a9.129,9.129,0,0,1-5.777-1.867,6.263,6.263,0,0,1-2.4-5.244q.059-4.562,4.592-6.814t12.947-2.252v-5.1q0-7.524-5.452-7.525a5.353,5.353,0,0,0-4.5,2.311,6.482,6.482,0,0,0-1.185,3.97,10.329,10.329,0,0,0,.237,2.133,2.88,2.88,0,0,1-1.689.593,4.243,4.243,0,0,1-1.689-.356,2.682,2.682,0,0,1-1.9-2.726,5.822,5.822,0,0,1,1.955-4.5q3.2-2.9,8.829-2.9t8.177,2.4q2.547,2.4,2.548,7.555v17.954l4.978.237.059,1.363-9.9.711-.533-5.274Q998.968,327.837,992.391,327.837Zm-2.37-7.111q0,3.852,3.14,4.563a5.614,5.614,0,0,0,1.363.178,7.635,7.635,0,0,0,4.681-1.926,6.6,6.6,0,0,0,2.548-5.185v-5.1Q990.021,313.38,990.021,320.726Z" transform="translate(-902.859 -281.737)" fill="#003da5"/>
          <path id="Path_5" data-name="Path 5" d="M1137.521,329.95h-11.377v-1.481l4.148-1.126,9.125-10.784-10.784-13.747-2.844-.3v-1.481h12.562l-.059,1.422-3.437.474,7.7,10.014,7.7-9.3-4.562-1.126v-1.481h11.377v1.481l-4.148,1.126-9.184,11.021,10.369,13.51,3.377.3v1.481h-13.095v-1.363l3.437-.474-7.288-9.718-7.407,8.947,4.385,1.126Z" transform="translate(-1017.889 -284.561)" fill="#003da5"/>
          <path id="Path_6" data-name="Path 6" d="M1312.02,424.707a3.443,3.443,0,0,1-1.007,2.488,3.369,3.369,0,0,1-2.518,1.037,3.443,3.443,0,0,1-3.526-3.526,3.515,3.515,0,0,1,1.007-2.548,3.333,3.333,0,0,1,2.489-1.037,3.382,3.382,0,0,1,2.518,1.067A3.5,3.5,0,0,1,1312.02,424.707Z" transform="translate(-1163.473 -382.133)" fill="#dc1c2e"/>
          <path id="Path_7" data-name="Path 7" d="M1372.988,297.558a11.036,11.036,0,0,1,8.236,3.407q3.318,3.408,3.318,10.784t-3.97,11.732q-3.97,4.355-11.318,4.355a13.993,13.993,0,0,1-6.933-1.718v14.1l4.148.3v1.422h-13.628v-1.422l3.673-.3V300.106l-5.1-.237v-1.363l10.666-.652-.178,5.155h.533a10.714,10.714,0,0,1,4.444-4.029A13.457,13.457,0,0,1,1372.988,297.558Zm-10.666,9.836v16.473a11.2,11.2,0,0,0,7.051,2.193,7.588,7.588,0,0,0,3.881-.948,7.384,7.384,0,0,0,2.548-2.37,10.894,10.894,0,0,0,1.392-3.615,39.164,39.164,0,0,0,.829-8.829q0-5.333-1.837-8.118a5.837,5.837,0,0,0-5.155-2.785,8.174,8.174,0,0,0-6.015,2.815Q1362.321,305.024,1362.322,307.394Z" transform="translate(-1201.213 -281.737)" fill="#dc1c2e"/>
          <path id="Path_8" data-name="Path 8" d="M1550.392,229.653h11.614v1.363l-4.385,1.126-11.318,9.718,13.155,14.873,3.97.415v1.422h-14.043v-1.422l3.318-.3-11.021-12.977V256.85l3.674.3v1.422h-13.332v-1.422l3.851-.3V216.024l-5.214-.237-.059-1.363,11.08-1.244v29.982l12.562-11.021-3.852-1.126Z" transform="translate(-1346.799 -213.18)" fill="#dc1c2e"/>
        </g>
        <g id="Group_12" data-name="Group 12" transform="translate(180.558 57.766)">
          <path id="Path_9" data-name="Path 9" d="M1125.6,487.959l1.46-.039q3.1,0,3.1,2.229a2.063,2.063,0,0,1-.7,1.616,2.626,2.626,0,0,1-1.812.626h-.3a3,3,0,0,1,2.04.9,3.427,3.427,0,0,1,.554,2.138q0,.886.365,1.082a.761.761,0,0,0,.385.078,1.785,1.785,0,0,0,.7-.209l.013.313a3.631,3.631,0,0,1-1.434.3q-1.46,0-1.76-1.095a5.215,5.215,0,0,1-.1-1.141,5.036,5.036,0,0,0-.085-1.056,1.66,1.66,0,0,0-.255-.607,1.579,1.579,0,0,0-1.421-.573h-.521v3.741l.991.117v.313h-3.676v-.313l.965-.1v-7.887l-1.121-.156v-.326q1.1.052,1.969.052Zm.221,4.184h.443q2.085,0,2.086-1.994a2.022,2.022,0,0,0-.4-1.4,1.665,1.665,0,0,0-1.277-.437,5.143,5.143,0,0,0-.848.052Z" transform="translate(-1122.978 -487.907)" fill="#212121"/>
          <path id="Path_10" data-name="Path 10" d="M1179.294,497.032v-.313l1.134-.117v-7.848l-1.134-.117v-.313h6.648v1.851h-.417l-.508-1.382-2.855-.039v3.506h2.529l.4-.965h.365v2.425h-.378l-.391-.991h-2.529v3.885l3.246-.039.678-1.486h.417l-.156,1.942Z" transform="translate(-1168.735 -488.246)" fill="#212121"/>
          <path id="Path_11" data-name="Path 11" d="M1238.032,497.032H1234.2v-.313l1.056-.117-1.2-3h-2.933l-1.043,2.777,1.16.339v.313h-2.724v-.313l.991-.339,3.155-8.056h.912l3.455,8.278,1,.117Zm-4.171-3.911-1.278-3.167-1.277,3.167Z" transform="translate(-1208.728 -488.246)" fill="#212121"/>
          <path id="Path_12" data-name="Path 12" d="M1293.212,488.324v.3l-1.134.13v7.861l3.246-.039.678-1.486h.417l-.156,1.942h-7.053v-.313l1.134-.117v-7.848l-1.134-.13v-.3Z" transform="translate(-1258.042 -488.246)" fill="#212121"/>
        </g>
        <g id="Group_13" data-name="Group 13" transform="translate(244.024 57.636)">
          <path id="Path_13" data-name="Path 13" d="M1461.463,497.033v-.313l1.134-.117v-7.848l-1.134-.117v-.313h6.648v1.851h-.417l-.508-1.382-2.855-.039v3.507h2.529l.4-.965h.365v2.425h-.378l-.391-.991h-2.529v3.885l3.246-.039.678-1.486h.417l-.156,1.943Z" transform="translate(-1461.463 -488.117)" fill="#212121"/>
          <path id="Path_14" data-name="Path 14" d="M1514.572,495.686a1.042,1.042,0,0,1-.547-.9q0-.756,1.2-.939a2.439,2.439,0,0,0,.886,1.682,2.187,2.187,0,0,0,1.271.417,1.745,1.745,0,0,0,1.16-.411,1.67,1.67,0,0,0,.489-1.349,1.364,1.364,0,0,0-.5-1.114,4.924,4.924,0,0,0-1.271-.724q-.769-.313-1.043-.437a7.835,7.835,0,0,1-.7-.371,2.849,2.849,0,0,1-.632-.469,2.043,2.043,0,0,1-.521-1.382,2.1,2.1,0,0,1,.913-1.851,4.45,4.45,0,0,1,2.542-.626,13.051,13.051,0,0,1,2.151.208v1.929h-.43l-.521-1.538a4.318,4.318,0,0,0-1.323-.209,1.738,1.738,0,0,0-1.167.424,1.563,1.563,0,0,0-.5,1.258,1.522,1.522,0,0,0,.86,1.421,9.748,9.748,0,0,0,1.017.443q.586.222.847.332a7.572,7.572,0,0,1,.691.352,2.478,2.478,0,0,1,.639.476,2.363,2.363,0,0,1,.378.619,2.063,2.063,0,0,1,.169.841,2.169,2.169,0,0,1-.939,1.812,4.178,4.178,0,0,1-2.561.7A4.722,4.722,0,0,1,1514.572,495.686Z" transform="translate(-1504.169 -487.213)" fill="#212121"/>
          <path id="Path_15" data-name="Path 15" d="M1570.269,490.181h-.391l-.612-1.5-2.1-.026v7.835l1.212.117v.313h-4.158v-.313l1.212-.117v-7.835l-2.1.026-.613,1.5h-.378v-1.969l3.963-.026,3.963.026Z" transform="translate(-1543.428 -488.004)" fill="#212121"/>
          <path id="Path_16" data-name="Path 16" d="M1620.108,497.033h-3.833v-.313l1.056-.117-1.2-3H1613.2l-1.043,2.776,1.16.339v.313h-2.725v-.313l.991-.339,3.155-8.056h.913l3.454,8.278,1,.117Zm-4.171-3.911-1.278-3.168-1.277,3.168Z" transform="translate(-1582.63 -488.117)" fill="#212121"/>
          <path id="Path_17" data-name="Path 17" d="M1674.138,490.181h-.391l-.613-1.5-2.1-.026v7.835l1.212.117v.313h-4.158v-.313l1.212-.117v-7.835l-2.1.026-.613,1.5h-.378v-1.969l3.963-.026,3.963.026Z" transform="translate(-1627.822 -488.004)" fill="#212121"/>
          <path id="Path_18" data-name="Path 18" d="M1721.552,497.033v-.313l1.134-.117v-7.848l-1.134-.117v-.313h6.648v1.851h-.417l-.508-1.382-2.855-.039v3.507h2.529l.4-.965h.365v2.425h-.378l-.391-.991h-2.529v3.885l3.246-.039.678-1.486h.417l-.156,1.943Z" transform="translate(-1672.785 -488.117)" fill="#212121"/>
        </g>
        <g id="Group_25" data-name="Group 25">
          <g id="Group_24" data-name="Group 24">
            <g id="Group_15" data-name="Group 15">
              <g id="Group_14" data-name="Group 14">
                <path id="Path_19" data-name="Path 19" d="M196.335,179.823a36.34,36.34,0,1,0,32.981,51.671l-19.217-.013-.013,3.175-29.057-.016V210.025l-3.366-.011,6.733-6.748-.022-7.674-1.484-.029v-3.729l7.23.008v3.728l-1.384.021.015,3.335,6.993-6.983,8.848,8.841,24.684-.007a36.427,36.427,0,0,0-32.927-20.953Zm0,0" transform="translate(-160 -179.823)" fill="#dc1c2e"/>
              </g>
            </g>
            <g id="Group_17" data-name="Group 17" transform="translate(35.928 40.752)">
              <g id="Group_16" data-name="Group 16">
                <path id="Path_20" data-name="Path 20" d="M358.419,397.167l-6.8.055.034,4.048,6.8-.055Zm0,0" transform="translate(-351.618 -397.167)" fill="#cd2227"/>
              </g>
            </g>
            <g id="Group_19" data-name="Group 19" transform="translate(35.983 47.309)">
              <g id="Group_18" data-name="Group 18">
                <path id="Path_21" data-name="Path 21" d="M358.71,432.138l-6.8.057.035,4.2,6.8-.056Zm0,0" transform="translate(-351.912 -432.138)" fill="#cd2227"/>
              </g>
            </g>
            <g id="Group_21" data-name="Group 21" transform="translate(27.557 40.819)">
              <g id="Group_20" data-name="Group 20">
                <path id="Path_22" data-name="Path 22" d="M313.783,397.524l-6.8.055h-.007l.034,4.049,6.812-.055Zm0,0" transform="translate(-306.971 -397.524)" fill="#cd2227"/>
              </g>
            </g>
            <g id="Group_23" data-name="Group 23" transform="translate(27.612 47.378)">
              <g id="Group_22" data-name="Group 22">
                <path id="Path_23" data-name="Path 23" d="M314.074,432.508l-6.812.056.034,4.133c-.006.048,0,.072.012.072a.029.029,0,0,0,.017-.007l6.785-.056Zm0,0" transform="translate(-307.262 -432.508)" fill="#cd2227"/>
              </g>
            </g>
          </g>
        </g>
      </g>
    </g>
  </g>
</svg>
